<?xml version="1.0" encoding="utf-8"?>
<!-- Generator: Adobe Illustrator 25.2.0, SVG Export Plug-In . SVG Version: 6.00 Build 0)  -->
<svg version="1.1" class="logo-moongo" xmlns="http://www.w3.org/2000/svg" xmlns:xlink="http://www.w3.org/1999/xlink" x="0px" y="0px"
	 viewBox="0 0 706.8 104.6" xml:space="preserve">
<g>
	<path d="M101.2,102.4H81V30.1c0-1.4-0.3-2.7-0.8-4c-0.5-1.2-1.3-2.3-2.2-3.2s-2-1.6-3.2-2.2c-1.2-0.5-2.5-0.8-4-0.8s-2.7,0.3-4,0.8
		c-1.2,0.5-2.3,1.2-3.2,2.2s-1.6,2-2.2,3.2c-0.5,1.2-0.8,2.5-0.8,4v72.3H40.5V30.1c0-1.4-0.3-2.7-0.8-4c-0.5-1.2-1.2-2.3-2.2-3.2
		s-2-1.6-3.2-2.2c-1.2-0.5-2.5-0.8-4-0.8s-2.7,0.3-4,0.8c-1.2,0.5-2.3,1.2-3.2,2.2s-1.6,2-2.2,3.2c-0.5,1.2-0.8,2.5-0.8,4v72.3H0
		V30.1c0-4.2,0.8-8.1,2.4-11.8c1.6-3.7,3.7-6.9,6.5-9.7s6-4.9,9.7-6.5c3.7-1.6,7.6-2.4,11.8-2.4c3.8,0,7.4,0.7,10.9,2
		c3.5,1.3,6.6,3.3,9.4,5.8C53.4,5,56.6,3.1,60,1.7s7.1-2,10.8-2c4.2,0,8.1,0.8,11.8,2.4c3.7,1.6,6.9,3.7,9.7,6.5s4.9,6,6.5,9.7
		c1.6,3.7,2.4,7.6,2.4,11.8V102.4z"/>
	<path d="M235.7,52.2c0,4.8-0.6,9.4-1.9,13.9c-1.2,4.5-3,8.6-5.3,12.5c-2.3,3.9-5,7.4-8.2,10.6c-3.2,3.2-6.7,5.9-10.6,8.2
		c-3.9,2.3-8,4.1-12.5,5.3c-4.5,1.2-9.1,1.9-13.9,1.9c-4.8,0-9.4-0.6-13.9-1.9c-4.5-1.2-8.6-3-12.5-5.3c-3.9-2.3-7.4-5-10.6-8.2
		c-3.2-3.2-5.9-6.7-8.2-10.6c-2.3-3.9-4.1-8.1-5.3-12.5c-1.2-4.5-1.9-9.1-1.9-13.9c0-4.8,0.6-9.4,1.9-13.9c1.2-4.5,3-8.6,5.3-12.5
		c2.3-3.9,5-7.4,8.2-10.6c3.2-3.2,6.7-5.9,10.6-8.2c3.9-2.3,8.1-4,12.5-5.3c4.5-1.2,9.1-1.9,13.9-1.9c4.8,0,9.4,0.6,13.9,1.9
		c4.5,1.2,8.6,3,12.5,5.3c3.9,2.3,7.4,5,10.6,8.2c3.2,3.2,5.9,6.7,8.2,10.6c2.3,3.9,4,8,5.3,12.5C235,42.8,235.7,47.4,235.7,52.2z
		 M215.5,52.2c0-4.4-0.8-8.6-2.5-12.5c-1.7-3.9-4-7.3-6.9-10.2c-2.9-2.9-6.3-5.2-10.2-6.9c-3.9-1.7-8.1-2.5-12.5-2.5
		c-4.5,0-8.7,0.8-12.6,2.5c-3.9,1.7-7.3,4-10.2,6.9c-2.9,2.9-5.2,6.3-6.9,10.2c-1.7,3.9-2.5,8.1-2.5,12.5c0,4.4,0.8,8.6,2.5,12.5
		c1.7,3.9,4,7.3,6.9,10.2c2.9,2.9,6.3,5.2,10.2,6.9c3.9,1.7,8.1,2.5,12.6,2.5c4.4,0,8.6-0.8,12.5-2.5c3.9-1.7,7.3-4,10.2-6.9
		c2.9-2.9,5.2-6.3,6.9-10.2S215.5,56.6,215.5,52.2z"/>
	<path d="M365.3,52.2c0,4.8-0.6,9.4-1.9,13.9c-1.2,4.5-3,8.6-5.3,12.5c-2.3,3.9-5,7.4-8.2,10.6c-3.2,3.2-6.7,5.9-10.6,8.2
		c-3.9,2.3-8,4.1-12.5,5.3c-4.5,1.2-9.1,1.9-13.9,1.9c-4.8,0-9.4-0.6-13.9-1.9c-4.5-1.2-8.6-3-12.5-5.3c-3.9-2.3-7.4-5-10.6-8.2
		c-3.2-3.2-5.9-6.7-8.2-10.6c-2.3-3.9-4.1-8.1-5.3-12.5c-1.2-4.5-1.9-9.1-1.9-13.9c0-4.8,0.6-9.4,1.9-13.9c1.2-4.5,3-8.6,5.3-12.5
		c2.3-3.9,5-7.4,8.2-10.6c3.2-3.2,6.7-5.9,10.6-8.2c3.9-2.3,8.1-4,12.5-5.3c4.5-1.2,9.1-1.9,13.9-1.9c4.8,0,9.4,0.6,13.9,1.9
		c4.5,1.2,8.6,3,12.5,5.3c3.9,2.3,7.4,5,10.6,8.2c3.2,3.2,5.9,6.7,8.2,10.6c2.3,3.9,4,8,5.3,12.5C364.7,42.8,365.3,47.4,365.3,52.2z
		 M345.2,52.2c0-4.4-0.8-8.6-2.5-12.5c-1.7-3.9-4-7.3-6.9-10.2c-2.9-2.9-6.3-5.2-10.2-6.9c-3.9-1.7-8.1-2.5-12.5-2.5
		c-4.5,0-8.7,0.8-12.6,2.5c-3.9,1.7-7.3,4-10.2,6.9c-2.9,2.9-5.2,6.3-6.9,10.2c-1.7,3.9-2.5,8.1-2.5,12.5c0,4.4,0.8,8.6,2.5,12.5
		c1.7,3.9,4,7.3,6.9,10.2c2.9,2.9,6.3,5.2,10.2,6.9c3.9,1.7,8.1,2.5,12.6,2.5c4.4,0,8.6-0.8,12.5-2.5c3.9-1.7,7.3-4,10.2-6.9
		c2.9-2.9,5.2-6.3,6.9-10.2S345.2,56.6,345.2,52.2z"/>
	<path d="M476.7,102.4H455l-39.1-66.7v66.7h-20.3V1.1h21.7l39.1,66.8V1.1h20.3V102.4z"/>
	<path d="M593.2,92.2c-4.7,4-10,7.1-15.8,9.2c-5.8,2.1-11.8,3.2-18.1,3.2c-4.8,0-9.4-0.6-13.9-1.9c-4.5-1.2-8.6-3-12.5-5.3
		c-3.9-2.3-7.4-5-10.6-8.2c-3.2-3.2-5.9-6.7-8.2-10.6s-4-8.1-5.3-12.5c-1.2-4.5-1.9-9.1-1.9-13.9c0-4.8,0.6-9.4,1.9-13.8
		c1.2-4.4,3-8.6,5.3-12.5s5-7.4,8.2-10.6c3.2-3.2,6.7-5.9,10.6-8.2c3.9-2.3,8-4,12.5-5.3c4.5-1.2,9.1-1.9,13.9-1.9
		c6.3,0,12.3,1.1,18.1,3.2c5.8,2.1,11,5.2,15.8,9.2l-10.6,17.7c-3.1-3.1-6.6-5.5-10.6-7.3c-4-1.8-8.2-2.6-12.6-2.6
		c-4.4,0-8.6,0.8-12.5,2.5s-7.3,4-10.2,6.9c-2.9,2.9-5.2,6.3-6.9,10.2s-2.5,8-2.5,12.5c0,4.5,0.8,8.7,2.5,12.6
		c1.7,3.9,4,7.3,6.9,10.2c2.9,2.9,6.3,5.2,10.2,6.9s8,2.5,12.5,2.5c2.5,0,5-0.3,7.4-0.9c2.4-0.6,4.7-1.5,6.9-2.5V52.2h19.6V92.2z"/>
	<path d="M690,95.3c-4,0-8-0.5-11.7-1.6c-3.8-1.1-7.3-2.5-10.5-4.5c-3.3-1.9-6.3-4.2-9-6.9c-2.7-2.7-5-5.7-6.9-9
		c-1.9-3.3-3.4-6.8-4.5-10.5c-1.1-3.8-1.6-7.7-1.6-11.7c0-4.1,0.5-8,1.6-11.7c1.1-3.8,2.5-7.3,4.5-10.5c1.9-3.3,4.2-6.2,6.9-8.9
		c2.7-2.7,5.7-5,9-6.9c3.3-1.9,6.8-3.4,10.5-4.4C682.1,7.5,686,7,690,7c4,0,7.9,0.5,11.6,1.6C700.8,8,700,7.5,699.2,7
		c-3.9-2.3-8-4-12.5-5.3c-4.5-1.2-9.1-1.9-13.9-1.9c-4.8,0-9.4,0.6-13.9,1.9c-4.5,1.2-8.6,3-12.5,5.3c-3.9,2.3-7.4,5-10.6,8.2
		c-3.2,3.2-5.9,6.7-8.2,10.6c-2.3,3.9-4.1,8-5.3,12.5c-1.2,4.5-1.9,9.1-1.9,13.9c0,4.8,0.6,9.4,1.9,13.9s3,8.6,5.3,12.5
		c2.3,3.9,5,7.4,8.2,10.6c3.2,3.2,6.7,5.9,10.6,8.2c3.9,2.3,8.1,4.1,12.5,5.3c4.5,1.2,9.1,1.9,13.9,1.9c4.8,0,9.4-0.6,13.9-1.9
		c4.5-1.2,8.6-3,12.5-5.3c2.7-1.6,5.2-3.4,7.6-5.5c-1.6,0.7-3.3,1.3-5,1.7C698,94.8,694.1,95.3,690,95.3z"/>
</g>
</svg>
